<?xml version='1.0' encoding='utf-8'?>
<svg xmlns="http://www.w3.org/2000/svg" version="1.1" id="Layer_1" x="0px" y="0px" viewBox="0 0 5000 285.2" style="enable-background:new 0 0 5000 285.2;"> <g> <g> <path d="M4379.1,140.4c-39.9-29-58.7-57.7-56.4-85.8c5.1-61.2,96.4-60.2,104.8,1.2c3.6,26.2-15,57.2-39.6,66.1 c-14,5-16.8,11.2-5,11.2c18.1,0,45.1-26.1,52.2-50.3C4447.9,38.9,4419,0,4373.6,0c-81.2,0-87.6,107.6-8.8,148.3 c73.6,38.1,81.8,122.7,12.3,127.1c-59.2,3.7-70.1-79.3-13.8-104.7c10.2-4.6,12.6-9.4,6-11.9c-9.4-3.6-39.4,22.6-49.4,43.1 c-16.4,33.8,1.8,74,36.8,81.2h0c65.3,13.4,106.4-43.2,70.9-97.6C4419.1,172.6,4403.9,158.5,4379.1,140.4z"/> <path d="M620.9,140.4c39.9-29,58.7-57.7,56.4-85.8c-5.1-61.2-96.4-60.2-104.8,1.2c-3.6,26.2,15,57.2,39.6,66.1 c14,5,16.8,11.2,5,11.2c-18.1,0-45.1-26.1-52.2-50.3C552.1,38.9,581,0,626.4,0c81.2,0,87.6,107.6,8.8,148.3 C561.7,186.4,553.5,271,623,275.4c59.2,3.7,70.1-79.3,13.8-104.7c-10.2-4.6-12.6-9.4-6-11.9c9.4-3.6,39.4,22.6,49.4,43.1 c16.4,33.8-1.8,74-36.8,81.2h0c-65.3,13.4-106.4-43.2-70.9-97.6C580.9,172.6,596.1,158.5,620.9,140.4z"/> <path d="M4604.2,150.1c-37.3-33.1-49.6-64.1-33.8-85.2c25.5-34,74.8-1,53.3,35.7c-5.9,10.1-19,20.4-25.9,20.4 c-6.5,0-13.5,6.7-8.9,8.5c6.6,2.6,23.4-3.3,32.7-11.6c34.9-30.6,14.2-80.6-31.3-75.9c-47.1,4.9-54.4,60.7-13.2,100.4 c47.4,45.6,55.2,59.7,43.8,79.5c-19.8,34.5-73,9.4-61.5-29c3.1-10.3,19.5-28.3,25.9-28.3c1.8,0,3.2-1.8,3.2-3.9 c0-6.3-14.2-2.1-23.7,7c-28.6,27.4-19.2,71,17.1,79.2c24.4,5.5,48.4-9.2,55-33.5C4642.7,191.5,4635.8,178.2,4604.2,150.1z"/> <path d="M395.8,150.1c37.3-33.1,49.6-64.1,33.8-85.2c-25.5-34-74.8-1-53.3,35.7c5.9,10.1,19,20.4,25.9,20.4 c6.5,0,13.5,6.7,8.9,8.5c-6.6,2.6-23.4-3.3-32.7-11.6c-34.9-30.6-14.2-80.6,31.3-75.9c47.1,4.9,54.4,60.7,13.2,100.4 c-47.4,45.6-55.2,59.7-43.8,79.5c19.8,34.5,73,9.4,61.5-29c-3.1-10.3-19.5-28.3-25.9-28.3c-1.8,0-3.2-1.8-3.2-3.9 c0-6.3,14.2-2.1,23.7,7c28.6,27.4,19.2,71-17.1,79.2c-24.4,5.5-48.4-9.2-55-33.5C357.3,191.5,364.2,178.2,395.8,150.1z"/> <path d="M4776.1,145c-12.4-5-15.2-6.9-10.3-6.9c39.9-0.4,67.5-60,32-68.9c-14.7-3.7-21,5.4-8.3,11.9c20.6,10.6-3.6,49.6-30.7,49.6 c-4.4,0-8,1.2-8,2.7c0,3.8-17.2,0.9-64,2.2c8.6,8.6,6.3,9.6,38.7,11.3c44.8,2.3,68.5,13.9,72.6,35.6c2.9,15.3-9.3,24.2-18.1,13.2 c-2.7-3.3-5.7-4.7-8.3-3.7c-10.2,3.9,3.1,16.6,3.1,16.4C4803.3,237,4853.9,176.5,4776.1,145z"/> <path d="M223.9,145c12.4-5,15.2-6.9,10.3-6.9c-39.9-0.4-67.5-60-32-68.9c14.7-3.7,21,5.4,8.3,11.9c-20.6,10.6,3.6,49.6,30.7,49.6 c4.4,0,8,1.2,8,2.7c0,3.8,17.2,0.9,64,2.2c-8.6,8.6-6.3,9.6-38.7,11.3c-44.8,2.3-68.5,13.9-72.6,35.6 c-2.9,15.3,9.3,24.2,18.1,13.2c2.7-3.3,5.7-4.7,8.3-3.7c10.2,3.9-3.1,16.6-3.1,16.4C196.7,237,146.1,176.5,223.9,145z"/> <path d="M4930.4,144.8c-11.5-3.4-13.5-6.9-4.1-6.9c29.4,0,43.6-40.2,18-50.9c-13.3-5.5-20.1,3.1-8.4,10.7 c13.9,9.1,4.8,25-18.2,31.8c-27.3,8.1-12.9,8.3-49,8.3l11.2-9.8c25.6-22.6,16.1-61.9-13.7-56.2c-13.8,2.6-16.7,15.2-3.6,15.2 c20.5,0,21.3,22.1,1.3,37.2c-10.3,7.8-22.3,10.8-50.4,12.6c-39.2,2.5-40.2,8.4-1.6,9.2c14,0.3,26.9,1.7,28.7,3 c1.8,1.4,8,4.5,13.7,7c20.2,8.8,31.7,29,23.5,41.5c-4,6.2-8.1,6.6-18.7,2.1c-7-2.9-8.5,5.9-2,11.2v0c15.6,12.7,38.9,0.1,38.9-20.9 c0-19.4-10-31.9-32-40.2c-11.7-4.4-13.7-5.9-10.4-7.7c2.7-1.5,5.9-1.4,9.3,0.2c2.9,1.4,14.4,3.3,25.8,4.2 c43.7,3.4,76.4,34,46.5,43.3c-9,2.8-5.7,9.7,5.1,10.6C4975,203.3,4966.6,155.7,4930.4,144.8z"/> <path d="M69.6,144.8c11.5-3.4,13.5-6.9,4.1-6.9c-29.4,0-43.6-40.2-18-50.9c13.3-5.5,20.1,3.1,8.4,10.7c-13.9,9.1-4.8,25,18.2,31.8 c27.3,8.1,12.9,8.3,49,8.3l-11.2-9.8c-25.6-22.6-16.1-61.9,13.7-56.2c13.8,2.6,16.7,15.2,3.6,15.2c-20.5,0-21.3,22.1-1.3,37.2 c10.3,7.8,22.3,10.8,50.4,12.6c39.2,2.5,40.2,8.4,1.6,9.2c-14,0.3-26.9,1.7-28.7,3c-1.8,1.4-8,4.5-13.7,7 c-20.2,8.8-31.7,29-23.5,41.5c4,6.2,8.1,6.6,18.7,2.1c7-2.9,8.5,5.9,2,11.2v0c-15.6,12.7-38.9,0.1-38.9-20.9 c0-19.4,10-31.9,32-40.2c11.7-4.4,13.7-5.9,10.4-7.7c-2.7-1.5-5.9-1.4-9.3,0.2c-2.9,1.4-14.4,3.3-25.8,4.2 c-43.7,3.4-76.4,34-46.5,43.3c9,2.8,5.7,9.7-5.1,10.6C25,203.3,33.4,155.7,69.6,144.8z"/> <path d="M4323.6,156.9c-5.4-10.9-5-11.7,7.1-11.7c9.4,0,10.9-0.7,10.9-5c0-4.7-0.9-4.9-15.1-3.1c-18.8,2.3-12.7,1.4-110.7-2.1 v14.9c70.9,0,105.1-2.1,93.2,25v0c-1.7,3.8-0.9,4.3,5,3.6C4324.2,177.5,4328.7,167.2,4323.6,156.9z"/> <path d="M676.4,156.9c5.4-10.9,5-11.7-7.1-11.7c-9.4,0-10.9-0.7-10.9-5c0-4.7,0.9-4.9,15.1-3.1c18.8,2.3,12.7,1.4,110.7-2.1v14.9 c-70.9,0-105.1-2.1-93.2,25v0c1.7,3.8,0.9,4.3-5,3.6C675.8,177.5,671.3,167.2,676.4,156.9z"/> <path d="M4669.9,138c-7.5,0-7.6-0.6-2.5-8.6c3.6-5.5,3.6-6.4-0.1-12c-5.5-8.4-12.6-7.9-14.3,1c-1.7,8.4-10.5,15.1-27.6,20.7 c-19.2,6.3-17.3,16.5,2.1,11c23.5-6.8,55.4-0.1,55.4,11.5c0,1.6,1.8,3.9,4.1,5.1v0c8.7,4.9,15.1-5,9-13.8 C4691,145.9,4677.3,138,4669.9,138z"/> <path d="M330.1,138c7.5,0,7.6-0.6,2.5-8.6c-3.6-5.5-3.6-6.4,0.1-12c5.5-8.4,12.6-7.9,14.3,1c1.7,8.4,10.5,15.1,27.6,20.7 c19.2,6.3,17.3,16.5-2.1,11c-23.5-6.8-55.4-0.1-55.4,11.5c0,1.6-1.8,3.9-4.1,5.1v0c-8.7,4.9-15.1-5-9-13.8 C309,145.9,322.7,138,330.1,138z"/> <path d="M4443,127.5c-4.1,7.7-2,8.8,7.4,4.1c14.4-7.2,28.5,2.4,21.9,14.8c-4.1,7.6-12.7,10.2-21.1,6.4c-11.7-5.3-9.9,5,1.9,11.4v0 c21,11.3,42.8-11,33.4-34.1C4478.7,110.7,4452.8,109.2,4443,127.5z"/> <path d="M557,127.5c4.1,7.7,2,8.8-7.4,4.1c-14.4-7.2-28.5,2.4-21.9,14.8c4.1,7.6,12.7,10.2,21.1,6.4c11.7-5.3,9.9,5-1.9,11.4v0 c-21,11.3-42.8-11-33.4-34.1C521.3,110.7,547.2,109.2,557,127.5z"/> <path d="M4549.8,164.9c0,2.6,0.8,2.6,5.9,0.7c6.4-2.5,4.5-12.2-3.7-18.6l-7.5-5.9c16-2.6,20.7-2.8,17.6-6.5 c-3.1-3.7-17.1-1.6-23.3,3.5c-4.9,4-6.9,1.5-3.7-4.6c3.9-7.3,3.2-13.4-2.4-19.3c-6.2-6.7-10.5-4.4-8.7,4.6 c2,9.9-4.8,17.3-15.7,17.3c-10.7,0-15.3,2.7-13.4,7.7c1.2,3.1,5.4,3.9,21.2,3.9C4535.5,147.7,4549.8,154.9,4549.8,164.9 L4549.8,164.9z"/> <path d="M450.2,164.9c0,2.6-0.8,2.6-5.9,0.7c-6.4-2.5-4.5-12.2,3.7-18.6l7.5-5.9c-16-2.6-20.7-2.8-17.6-6.5 c3.1-3.7,17.1-1.6,23.3,3.5c4.9,4,6.9,1.5,3.7-4.6c-3.9-7.3-3.2-13.4,2.4-19.3c6.2-6.7,10.5-4.4,8.7,4.6 c-2,9.9,4.8,17.3,15.7,17.3c10.7,0,15.3,2.7,13.4,7.7c-1.2,3.1-5.4,3.9-21.2,3.9C464.5,147.7,450.2,154.9,450.2,164.9L450.2,164.9 z"/> <path d="M4403.5,152.8c3.9,6.4,24.4-4.8,50-6.3c12.8-0.7,15.4-1.9,12.9-5.9c-1-1.6-7.3-2-16.6-1.2 C4416,142.5,4400,147.1,4403.5,152.8z"/> <path d="M596.5,152.8c-3.9,6.4-24.4-4.8-50-6.3c-12.8-0.7-15.4-1.9-12.9-5.9c1-1.6,7.3-2,16.6-1.2 C584,142.5,600,147.1,596.5,152.8z"/> <path d="M4995.2,128.3c-11-5.9-21.8,10-13.2,19.5v0c8.3,9.2,18.1,4.4,18.1-9C5000,133.4,4998.5,130.1,4995.2,128.3z"/> <path d="M4.8,128.3c11-5.9,21.8,10,13.2,19.5v0C9.7,157,0,152.2,0,138.8C0,133.4,1.5,130.1,4.8,128.3z"/> <path d="M4956.4,140.4c0,2.5,1.9,5.7,4.2,7h0c7.9,4.4,14.2-7,7.5-13.6C4964.3,129.9,4956.4,134.3,4956.4,140.4z"/> <path d="M43.6,140.4c0,2.5-1.9,5.7-4.2,7h0c-7.9,4.4-14.2-7-7.5-13.6C35.7,129.9,43.6,134.3,43.6,140.4z"/> </g> <g> <g> <path d="M4162.7,97.3c25,0,45.3,20.3,45.3,45.3c0,25-20.3,45.3-45.3,45.3H837.3c-25,0-45.3-20.3-45.3-45.3 c0-25,20.3-45.3,45.3-45.3H4162.7z M4162.7,175.7c18.3,0,33.2-14.9,33.2-33.2c0-18.3-14.9-33.2-33.2-33.2H837.3 c-18.3,0-33.2,14.9-33.2,33.2c0,18.3,14.9,33.2,33.2,33.2H4162.7z"/> </g> <g> <path d="M4162.6,124.3c10.1,0,18.3,8.2,18.3,18.3c0,10.1-8.2,18.3-18.3,18.3H837.4c-10.1,0-18.3-8.2-18.3-18.3 c0-10.1,8.2-18.3,18.3-18.3H4162.6z"/> </g> </g> </g> </svg>